<svg version="1.0" xmlns="http://www.w3.org/2000/svg" width="240.000000pt" height="235.000000pt" viewBox="-50 -50 400 393" preserveAspectRatio="xMidYMid meet" style="display: block; margin: 0 auto;">
<g transform="translate(0.000000,293.000000) scale(0.100000,-0.100000)" fill="none" stroke="#000000" stroke-width="400">
<path d="M515 2867 c-44 -44 -72 -136 -129 -423 -25 -127 -54 -254 -64 -280 -10 -27 -53 -102 -96 -166 -42 -64 -92 -152 -111 -195 -110 -256 -123 -548 -35 -815 34 -102 113 -257 180 -351 77 -107 248 -274 355 -345 286 -191 618 -273 1005 -250 547 33 1016 337 1236 803 87 184 119 341 111 555 -8 234 -62 396 -200 602 -42 62 -86 140 -97 172 -11 33 -38 153 -60 266 -78 403 -105 460 -215 460 -84 0 -170 -51 -365 -215 -101 -85 -190 -152 -245 -186 -40 -24 -43 -24 -285 -24 l-245 0 -49 29 c-27 15 -96 67 -155 114 -58 47 -144 117 -191 154 -112 91 -187 128 -258 128 -48 0 -58 -4 -87 -33z"/>
</g>
</svg>